<svg id="mindmap" version="1.1" xmlns="http://www.w3.org/2000/svg" xmlns:xlink="http://www.w3.org/1999/xlink" width="100%" viewBox="0 0 1062 850" style="background-color:white"><g transform="translate(43.619138083688085,336.5926779629809) scale(1.4742692172910998)"><path class="markmap-link" stroke="#98df8a" stroke-width="1.5" d="M325.375,296.875C355.375,296.875 355.375,266.875 385.375,266.875"></path><path class="markmap-link" stroke="#2ca02c" stroke-width="1.5" d="M325.375,296.875C355.375,296.875 355.375,281.875 385.375,281.875"></path><path class="markmap-link" stroke="#ffbb78" stroke-width="1.5" d="M325.375,296.875C355.375,296.875 355.375,296.875 385.375,296.875"></path><path class="markmap-link" stroke="#ff7f0e" stroke-width="1.5" d="M325.375,296.875C355.375,296.875 355.375,311.875 385.375,311.875"></path><path class="markmap-link" stroke="#aec7e8" stroke-width="1.5" d="M325.375,296.875C355.375,296.875 355.375,326.875 385.375,326.875"></path><path class="markmap-link" stroke="#2ca02c" stroke-width="1.5" d="M400.111328125,246.875C430.111328125,246.875 430.111328125,246.875 460.111328125,246.875"></path><path class="markmap-link" stroke="#d62728" stroke-width="1.5" d="M263.3310546875,231.875C293.3310546875,231.875 293.3310546875,216.875 323.3310546875,216.875"></path><path class="markmap-link" stroke="#98df8a" stroke-width="1.5" d="M263.3310546875,231.875C293.3310546875,231.875 293.3310546875,231.875 323.3310546875,231.875"></path><path class="markmap-link" stroke="#2ca02c" stroke-width="1.5" d="M263.3310546875,231.875C293.3310546875,231.875 293.3310546875,246.875 323.3310546875,246.875"></path><path class="markmap-link" stroke="#ff9896" stroke-width="1.5" d="M351.92578125,196.875C381.92578125,196.875 381.92578125,166.875 411.92578125,166.875"></path><path class="markmap-link" stroke="#d62728" stroke-width="1.5" d="M351.92578125,196.875C381.92578125,196.875 381.92578125,181.875 411.92578125,181.875"></path><path class="markmap-link" stroke="#98df8a" stroke-width="1.5" d="M351.92578125,196.875C381.92578125,196.875 381.92578125,196.875 411.92578125,196.875"></path><path class="markmap-link" stroke="#2ca02c" stroke-width="1.5" d="M351.92578125,196.875C381.92578125,196.875 381.92578125,211.875 411.92578125,211.875"></path><path class="markmap-link" stroke="#ffbb78" stroke-width="1.5" d="M351.92578125,196.875C381.92578125,196.875 381.92578125,226.875 411.92578125,226.875"></path><path class="markmap-link" stroke="#1f77b4" stroke-width="1.5" d="M341.375,101.875C371.375,101.875 371.375,56.875 401.375,56.875"></path><path class="markmap-link" stroke="#ff9896" stroke-width="1.5" d="M341.375,101.875C371.375,101.875 371.375,71.875 401.375,71.875"></path><path class="markmap-link" stroke="#d62728" stroke-width="1.5" d="M341.375,101.875C371.375,101.875 371.375,86.875 401.375,86.875"></path><path class="markmap-link" stroke="#98df8a" stroke-width="1.5" d="M341.375,101.875C371.375,101.875 371.375,101.875 401.375,101.875"></path><path class="markmap-link" stroke="#2ca02c" stroke-width="1.5" d="M341.375,101.875C371.375,101.875 371.375,116.875 401.375,116.875"></path><path class="markmap-link" stroke="#ffbb78" stroke-width="1.5" d="M341.375,101.875C371.375,101.875 371.375,131.875 401.375,131.875"></path><path class="markmap-link" stroke="#ff7f0e" stroke-width="1.5" d="M341.375,101.875C371.375,101.875 371.375,146.875 401.375,146.875"></path><path class="markmap-link" stroke="#9467bd" stroke-width="1.5" d="M290.55078125,-15.625C320.55078125,-15.625 320.55078125,-68.125 350.55078125,-68.125"></path><path class="markmap-link" stroke="#1f77b4" stroke-width="1.5" d="M290.55078125,-15.625C320.55078125,-15.625 320.55078125,-53.125 350.55078125,-53.125"></path><path class="markmap-link" stroke="#ff9896" stroke-width="1.5" d="M290.55078125,-15.625C320.55078125,-15.625 320.55078125,-38.125 350.55078125,-38.125"></path><path class="markmap-link" stroke="#d62728" stroke-width="1.5" d="M290.55078125,-15.625C320.55078125,-15.625 320.55078125,-23.125 350.55078125,-23.125"></path><path class="markmap-link" stroke="#98df8a" stroke-width="1.5" d="M290.55078125,-15.625C320.55078125,-15.625 320.55078125,-8.125 350.55078125,-8.125"></path><path class="markmap-link" stroke="#2ca02c" stroke-width="1.5" d="M290.55078125,-15.625C320.55078125,-15.625 320.55078125,6.875 350.55078125,6.875"></path><path class="markmap-link" stroke="#ffbb78" stroke-width="1.5" d="M290.55078125,-15.625C320.55078125,-15.625 320.55078125,21.875 350.55078125,21.875"></path><path class="markmap-link" stroke="#ff7f0e" stroke-width="1.5" d="M290.55078125,-15.625C320.55078125,-15.625 320.55078125,36.875 350.55078125,36.875"></path><path class="markmap-link" stroke="#9467bd" stroke-width="1.5" d="M167.55078125,140.625C197.55078125,140.625 197.55078125,-15.625 227.55078125,-15.625"></path><path class="markmap-link" stroke="#1f77b4" stroke-width="1.5" d="M167.55078125,140.625C197.55078125,140.625 197.55078125,101.875 227.55078125,101.875"></path><path class="markmap-link" stroke="#ff9896" stroke-width="1.5" d="M167.55078125,140.625C197.55078125,140.625 197.55078125,196.875 227.55078125,196.875"></path><path class="markmap-link" stroke="#d62728" stroke-width="1.5" d="M167.55078125,140.625C197.55078125,140.625 197.55078125,231.875 227.55078125,231.875"></path><path class="markmap-link" stroke="#98df8a" stroke-width="1.5" d="M167.55078125,140.625C197.55078125,140.625 197.55078125,296.875 227.55078125,296.875"></path><path class="markmap-link" stroke="#c5b0d5" stroke-width="1.5" d="M171.30078125,-88.125C201.30078125,-88.125 201.30078125,-103.125 231.30078125,-103.125"></path><path class="markmap-link" stroke="#9467bd" stroke-width="1.5" d="M171.30078125,-88.125C201.30078125,-88.125 201.30078125,-88.125 231.30078125,-88.125"></path><path class="markmap-link" stroke="#1f77b4" stroke-width="1.5" d="M171.30078125,-88.125C201.30078125,-88.125 201.30078125,-73.125 231.30078125,-73.125"></path><path class="markmap-link" stroke="#8c564b" stroke-width="1.5" d="M160.2333984375,-160.625C190.2333984375,-160.625 190.2333984375,-198.125 220.2333984375,-198.125"></path><path class="markmap-link" stroke="#c5b0d5" stroke-width="1.5" d="M160.2333984375,-160.625C190.2333984375,-160.625 190.2333984375,-183.125 220.2333984375,-183.125"></path><path class="markmap-link" stroke="#9467bd" stroke-width="1.5" d="M160.2333984375,-160.625C190.2333984375,-160.625 190.2333984375,-168.125 220.2333984375,-168.125"></path><path class="markmap-link" stroke="#1f77b4" stroke-width="1.5" d="M160.2333984375,-160.625C190.2333984375,-160.625 190.2333984375,-153.125 220.2333984375,-153.125"></path><path class="markmap-link" stroke="#ff9896" stroke-width="1.5" d="M160.2333984375,-160.625C190.2333984375,-160.625 190.2333984375,-138.125 220.2333984375,-138.125"></path><path class="markmap-link" stroke="#d62728" stroke-width="1.5" d="M160.2333984375,-160.625C190.2333984375,-160.625 190.2333984375,-123.125 220.2333984375,-123.125"></path><path class="markmap-link" stroke="#8c564b" stroke-width="2" d="M46,0C76,0 76,-160.625 106,-160.625"></path><path class="markmap-link" stroke="#c5b0d5" stroke-width="2" d="M46,0C76,0 76,-88.125 106,-88.125"></path><path class="markmap-link" stroke="#9467bd" stroke-width="2" d="M46,0C76,0 76,140.625 106,140.625"></path><path class="markmap-link" stroke="#1f77b4" stroke-width="2" d="M46,0C76,0 76,160.625 106,160.625"></path><g class="markmap-node" transform="translate(106,160.625)"><rect class="markmap-node-rect" y="-1" x="-1" width="68" height="2" fill="#1f77b4"></rect><circle class="markmap-node-circle" cx="66" stroke="#1f77b4" r="4.5" style="display: none;"></circle><text class="markmap-node-text" x="10" dy="-5" text-anchor="start" style="fill-opacity: 1;">Live Demo</text></g><g class="markmap-node" transform="translate(385.375,326.875)"><rect class="markmap-node-rect" y="-0.75" x="-1" width="178.00390625" height="1.5" fill="#aec7e8"></rect><circle class="markmap-node-circle" cx="176.00390625" stroke="#aec7e8" r="4.5" style="display: none;"></circle><text class="markmap-node-text" x="10" dy="-5" text-anchor="start" style="fill-opacity: 1;">[ ] Version control: git integration</text></g><g class="markmap-node" transform="translate(385.375,311.875)"><rect class="markmap-node-rect" y="-0.75" x="-1" width="144" height="1.5" fill="#ff7f0e"></rect><circle class="markmap-node-circle" cx="142" stroke="#ff7f0e" r="4.5" style="display: none;"></circle><text class="markmap-node-text" x="10" dy="-5" text-anchor="start" style="fill-opacity: 1;">[ ] Export as PDF,HTML, ...</text></g><g class="markmap-node" transform="translate(385.375,296.875)"><rect class="markmap-node-rect" y="-0.75" x="-1" width="103.55078125" height="1.5" fill="#ffbb78"></rect><circle class="markmap-node-circle" cx="101.55078125" stroke="#ffbb78" r="4.5" style="display: none;"></circle><text class="markmap-node-text" x="10" dy="-5" text-anchor="start" style="fill-opacity: 1;">[X] Recent history</text></g><g class="markmap-node" transform="translate(385.375,281.875)"><rect class="markmap-node-rect" y="-0.75" x="-1" width="80" height="1.5" fill="#2ca02c"></rect><circle class="markmap-node-circle" cx="78" stroke="#2ca02c" r="4.5" style="display: none;"></circle><text class="markmap-node-text" x="10" dy="-5" text-anchor="start" style="fill-opacity: 1;">[X] Backlinks</text></g><g class="markmap-node" transform="translate(385.375,266.875)"><rect class="markmap-node-rect" y="-0.75" x="-1" width="131.6435546875" height="1.5" fill="#98df8a"></rect><circle class="markmap-node-circle" cx="129.6435546875" stroke="#98df8a" r="4.5" style="display: none;"></circle><text class="markmap-node-text" x="10" dy="-5" text-anchor="start" style="fill-opacity: 1;">[X] Folder management</text></g><g class="markmap-node" transform="translate(227.55078125,296.875)"><rect class="markmap-node-rect" y="-0.75" x="-1" width="99.82421875" height="1.5" fill="#98df8a"></rect><circle class="markmap-node-circle" cx="97.82421875" stroke="#98df8a" r="4.5"></circle><text class="markmap-node-text" x="10" dy="-5" text-anchor="start" style="fill-opacity: 1;">Organize writings</text></g><g class="markmap-node" transform="translate(460.111328125,246.875)"><rect class="markmap-node-rect" y="-0.75" x="-1" width="146.998046875" height="1.5" fill="#2ca02c"></rect><circle class="markmap-node-circle" cx="144.998046875" stroke="#2ca02c" r="4.5" style="display: none;"></circle><text class="markmap-node-text" x="10" dy="-5" text-anchor="start" style="fill-opacity: 1;">[X] Daily Activities Tracker</text></g><g class="markmap-node" transform="translate(323.3310546875,246.875)"><rect class="markmap-node-rect" y="-0.75" x="-1" width="78.7802734375" height="1.5" fill="#2ca02c"></rect><circle class="markmap-node-circle" cx="76.7802734375" stroke="#2ca02c" r="4.5"></circle><text class="markmap-node-text" x="10" dy="-5" text-anchor="start" style="fill-opacity: 1;">[X] Chronicle</text></g><g class="markmap-node" transform="translate(323.3310546875,231.875)"><rect class="markmap-node-rect" y="-0.75" x="-1" width="53.3447265625" height="1.5" fill="#98df8a"></rect><circle class="markmap-node-circle" cx="51.3447265625" stroke="#98df8a" r="4.5" style="display: none;"></circle><text class="markmap-node-text" x="10" dy="-5" text-anchor="start" style="fill-opacity: 1;">[X] Task</text></g><g class="markmap-node" transform="translate(323.3310546875,216.875)"><rect class="markmap-node-rect" y="-0.75" x="-1" width="62" height="1.5" fill="#d62728"></rect><circle class="markmap-node-circle" cx="60" stroke="#d62728" r="4.5" style="display: none;"></circle><text class="markmap-node-text" x="10" dy="-5" text-anchor="start" style="fill-opacity: 1;">[X] Graph</text></g><g class="markmap-node" transform="translate(227.55078125,231.875)"><rect class="markmap-node-rect" y="-0.75" x="-1" width="37.7802734375" height="1.5" fill="#d62728"></rect><circle class="markmap-node-circle" cx="35.7802734375" stroke="#d62728" r="4.5"></circle><text class="markmap-node-text" x="10" dy="-5" text-anchor="start" style="fill-opacity: 1;">View</text></g><g class="markmap-node" transform="translate(411.92578125,226.875)"><rect class="markmap-node-rect" y="-0.75" x="-1" width="80" height="1.5" fill="#ffbb78"></rect><circle class="markmap-node-circle" cx="78" stroke="#ffbb78" r="4.5" style="display: none;"></circle><text class="markmap-node-text" x="10" dy="-5" text-anchor="start" style="fill-opacity: 1;">[X] Split view</text></g><g class="markmap-node" transform="translate(411.92578125,211.875)"><rect class="markmap-node-rect" y="-0.75" x="-1" width="70.6435546875" height="1.5" fill="#2ca02c"></rect><circle class="markmap-node-circle" cx="68.6435546875" stroke="#2ca02c" r="4.5" style="display: none;"></circle><text class="markmap-node-text" x="10" dy="-5" text-anchor="start" style="fill-opacity: 1;">[X] hotkeys</text></g><g class="markmap-node" transform="translate(411.92578125,196.875)"><rect class="markmap-node-rect" y="-0.75" x="-1" width="115" height="1.5" fill="#98df8a"></rect><circle class="markmap-node-circle" cx="113" stroke="#98df8a" r="4.5" style="display: none;"></circle><text class="markmap-node-text" x="10" dy="-5" text-anchor="start" style="fill-opacity: 1;">[X] Hovering toolbar</text></g><g class="markmap-node" transform="translate(411.92578125,181.875)"><rect class="markmap-node-rect" y="-0.75" x="-1" width="116" height="1.5" fill="#d62728"></rect><circle class="markmap-node-circle" cx="114" stroke="#d62728" r="4.5" style="display: none;"></circle><text class="markmap-node-text" x="10" dy="-5" text-anchor="start" style="fill-opacity: 1;">[X] Slash commands</text></g><g class="markmap-node" transform="translate(411.92578125,166.875)"><rect class="markmap-node-rect" y="-0.75" x="-1" width="238" height="1.5" fill="#ff9896"></rect><circle class="markmap-node-circle" cx="236" stroke="#ff9896" r="4.5" style="display: none;"></circle><text class="markmap-node-text" x="10" dy="-5" text-anchor="start" style="fill-opacity: 1;">[X] WYSIWYG, raw mode and mindmap mode</text></g><g class="markmap-node" transform="translate(227.55078125,196.875)"><rect class="markmap-node-rect" y="-0.75" x="-1" width="126.375" height="1.5" fill="#ff9896"></rect><circle class="markmap-node-circle" cx="124.375" stroke="#ff9896" r="4.5"></circle><text class="markmap-node-text" x="10" dy="-5" text-anchor="start" style="fill-opacity: 1;">Writing and formatting</text></g><g class="markmap-node" transform="translate(401.375,146.875)"><rect class="markmap-node-rect" y="-0.75" x="-1" width="130.82421875" height="1.5" fill="#ff7f0e"></rect><circle class="markmap-node-circle" cx="128.82421875" stroke="#ff7f0e" r="4.5" style="display: none;"></circle><text class="markmap-node-text" x="10" dy="-5" text-anchor="start" style="fill-opacity: 1;">[ ] Diagram: mermaid...</text></g><g class="markmap-node" transform="translate(401.375,131.875)"><rect class="markmap-node-rect" y="-0.75" x="-1" width="79" height="1.5" fill="#ffbb78"></rect><circle class="markmap-node-circle" cx="77" stroke="#ffbb78" r="4.5" style="display: none;"></circle><text class="markmap-node-text" x="10" dy="-5" text-anchor="start" style="fill-opacity: 1;">[X] Hashtag: </text></g><g class="markmap-node" transform="translate(401.375,116.875)"><rect class="markmap-node-rect" y="-0.75" x="-1" width="77.7802734375" height="1.5" fill="#2ca02c"></rect><circle class="markmap-node-circle" cx="75.7802734375" stroke="#2ca02c" r="4.5" style="display: none;"></circle><text class="markmap-node-text" x="10" dy="-5" text-anchor="start" style="fill-opacity: 1;">[X] Wikilink: </text></g><g class="markmap-node" transform="translate(401.375,101.875)"><rect class="markmap-node-rect" y="-0.75" x="-1" width="187.82421875" height="1.5" fill="#98df8a"></rect><circle class="markmap-node-circle" cx="185.82421875" stroke="#98df8a" r="4.5" style="display: none;"></circle><text class="markmap-node-text" x="10" dy="-5" text-anchor="start" style="fill-opacity: 1;">[X] Notice block: info, warning, tips</text></g><g class="markmap-node" transform="translate(401.375,86.875)"><rect class="markmap-node-rect" y="-0.75" x="-1" width="205" height="1.5" fill="#d62728"></rect><circle class="markmap-node-circle" cx="203" stroke="#d62728" r="4.5" style="display: none;"></circle><text class="markmap-node-text" x="10" dy="-5" text-anchor="start" style="fill-opacity: 1;">[X] Math: inline math  and math block </text></g><g class="markmap-node" transform="translate(401.375,71.875)"><rect class="markmap-node-rect" y="-0.75" x="-1" width="134" height="1.5" fill="#ff9896"></rect><circle class="markmap-node-circle" cx="132" stroke="#ff9896" r="4.5" style="display: none;"></circle><text class="markmap-node-text" x="10" dy="-5" text-anchor="start" style="fill-opacity: 1;">[X] Highlight code block</text></g><g class="markmap-node" transform="translate(401.375,56.875)"><rect class="markmap-node-rect" y="-0.75" x="-1" width="102.7802734375" height="1.5" fill="#1f77b4"></rect><circle class="markmap-node-circle" cx="100.7802734375" stroke="#1f77b4" r="4.5" style="display: none;"></circle><text class="markmap-node-text" x="10" dy="-5" text-anchor="start" style="fill-opacity: 1;">[X] more style: , , </text></g><g class="markmap-node" transform="translate(227.55078125,101.875)"><rect class="markmap-node-rect" y="-0.75" x="-1" width="115.82421875" height="1.5" fill="#1f77b4"></rect><circle class="markmap-node-circle" cx="113.82421875" stroke="#1f77b4" r="4.5"></circle><text class="markmap-node-text" x="10" dy="-5" text-anchor="start" style="fill-opacity: 1;">Markdown extension</text></g><g class="markmap-node" transform="translate(350.55078125,36.875)"><rect class="markmap-node-rect" y="-0.75" x="-1" width="112.55078125" height="1.5" fill="#ff7f0e"></rect><circle class="markmap-node-circle" cx="110.55078125" stroke="#ff7f0e" r="4.5" style="display: none;"></circle><text class="markmap-node-text" x="10" dy="-5" text-anchor="start" style="fill-opacity: 1;">[X] Horizontal Rules</text></g><g class="markmap-node" transform="translate(350.55078125,21.875)"><rect class="markmap-node-rect" y="-0.75" x="-1" width="93" height="1.5" fill="#ffbb78"></rect><circle class="markmap-node-circle" cx="91" stroke="#ffbb78" r="4.5" style="display: none;"></circle><text class="markmap-node-text" x="10" dy="-5" text-anchor="start" style="fill-opacity: 1;">[X] Blockquotes</text></g><g class="markmap-node" transform="translate(350.55078125,6.875)"><rect class="markmap-node-rect" y="-0.75" x="-1" width="57.3447265625" height="1.5" fill="#2ca02c"></rect><circle class="markmap-node-circle" cx="55.3447265625" stroke="#2ca02c" r="4.5" style="display: none;"></circle><text class="markmap-node-text" x="10" dy="-5" text-anchor="start" style="fill-opacity: 1;">[X] Table</text></g><g class="markmap-node" transform="translate(350.55078125,-8.125)"><rect class="markmap-node-rect" y="-0.75" x="-1" width="318.6044921875" height="1.5" fill="#98df8a"></rect><circle class="markmap-node-circle" cx="316.6044921875" stroke="#98df8a" r="4.5" style="display: none;"></circle><text class="markmap-node-text" x="10" dy="-5" text-anchor="start" style="fill-opacity: 1;">[X] List item: ordered list, bullet list, check list and nested list</text></g><g class="markmap-node" transform="translate(350.55078125,-23.125)"><rect class="markmap-node-rect" y="-0.75" x="-1" width="126" height="1.5" fill="#d62728"></rect><circle class="markmap-node-circle" cx="124" stroke="#d62728" r="4.5" style="display: none;"></circle><text class="markmap-node-text" x="10" dy="-5" text-anchor="start" style="fill-opacity: 1;">[X] Headings and TOC,</text></g><g class="markmap-node" transform="translate(350.55078125,-38.125)"><rect class="markmap-node-rect" y="-0.75" x="-1" width="69" height="1.5" fill="#ff9896"></rect><circle class="markmap-node-circle" cx="67" stroke="#ff9896" r="4.5" style="display: none;"></circle><text class="markmap-node-text" x="10" dy="-5" text-anchor="start" style="fill-opacity: 1;">[X] Image: </text></g><g class="markmap-node" transform="translate(350.55078125,-53.125)"><rect class="markmap-node-rect" y="-0.75" x="-1" width="211.82421875" height="1.5" fill="#1f77b4"></rect><circle class="markmap-node-circle" cx="209.82421875" stroke="#1f77b4" r="4.5" style="display: none;"></circle><text class="markmap-node-text" x="10" dy="-5" text-anchor="start" style="fill-opacity: 1;">[X] Link: mdSilo and https://mdsilo.com,</text></g><g class="markmap-node" transform="translate(350.55078125,-68.125)"><rect class="markmap-node-rect" y="-0.75" x="-1" width="194.423828125" height="1.5" fill="#9467bd"></rect><circle class="markmap-node-circle" cx="192.423828125" stroke="#9467bd" r="4.5" style="display: none;"></circle><text class="markmap-node-text" x="10" dy="-5" text-anchor="start" style="fill-opacity: 1;">[X] Style: Bold, Italic, Strikethrough, </text></g><g class="markmap-node" transform="translate(227.55078125,-15.625)"><rect class="markmap-node-rect" y="-0.75" x="-1" width="65" height="1.5" fill="#9467bd"></rect><circle class="markmap-node-circle" cx="63" stroke="#9467bd" r="4.5"></circle><text class="markmap-node-text" x="10" dy="-5" text-anchor="start" style="fill-opacity: 1;">Markdown</text></g><g class="markmap-node" transform="translate(106,140.625)"><rect class="markmap-node-rect" y="-1" x="-1" width="63.55078125" height="2" fill="#9467bd"></rect><circle class="markmap-node-circle" cx="61.55078125" stroke="#9467bd" r="4.5"></circle><text class="markmap-node-text" x="10" dy="-5" text-anchor="start" style="fill-opacity: 1;">Road map</text></g><g class="markmap-node" transform="translate(231.30078125,-73.125)"><rect class="markmap-node-rect" y="-0.75" x="-1" width="119.94921875" height="1.5" fill="#1f77b4"></rect><circle class="markmap-node-circle" cx="117.94921875" stroke="#1f77b4" r="4.5" style="display: none;"></circle><text class="markmap-node-text" x="10" dy="-5" text-anchor="start" style="fill-opacity: 1;">Cross-platform:  Tauri</text></g><g class="markmap-node" transform="translate(231.30078125,-88.125)"><rect class="markmap-node-rect" y="-0.75" x="-1" width="149.8759765625" height="1.5" fill="#9467bd"></rect><circle class="markmap-node-circle" cx="147.8759765625" stroke="#9467bd" r="4.5" style="display: none;"></circle><text class="markmap-node-text" x="10" dy="-5" text-anchor="start" style="fill-opacity: 1;">Frontend Framework: React</text></g><g class="markmap-node" transform="translate(231.30078125,-103.125)"><rect class="markmap-node-rect" y="-0.75" x="-1" width="163.4814453125" height="1.5" fill="#c5b0d5"></rect><circle class="markmap-node-circle" cx="161.4814453125" stroke="#c5b0d5" r="4.5" style="display: none;"></circle><text class="markmap-node-text" x="10" dy="-5" text-anchor="start" style="fill-opacity: 1;">Editor Framework: ProseMirror</text></g><g class="markmap-node" transform="translate(106,-88.125)"><rect class="markmap-node-rect" y="-1" x="-1" width="67.30078125" height="2" fill="#c5b0d5"></rect><circle class="markmap-node-circle" cx="65.30078125" stroke="#c5b0d5" r="4.5"></circle><text class="markmap-node-text" x="10" dy="-5" text-anchor="start" style="fill-opacity: 1;">Tech Stack</text></g><g class="markmap-node" transform="translate(220.2333984375,-123.125)"><rect class="markmap-node-rect" y="-0.75" x="-1" width="198.1943359375" height="1.5" fill="#d62728"></rect><circle class="markmap-node-circle" cx="196.1943359375" stroke="#d62728" r="4.5" style="display: none;"></circle><text class="markmap-node-text" x="10" dy="-5" text-anchor="start" style="fill-opacity: 1;">Available for Windows, macOS, Linux</text></g><g class="markmap-node" transform="translate(220.2333984375,-138.125)"><rect class="markmap-node-rect" y="-0.75" x="-1" width="94.0576171875" height="1.5" fill="#ff9896"></rect><circle class="markmap-node-circle" cx="92.0576171875" stroke="#ff9896" r="4.5" style="display: none;"></circle><text class="markmap-node-text" x="10" dy="-5" text-anchor="start" style="fill-opacity: 1;">Full-text search;</text></g><g class="markmap-node" transform="translate(220.2333984375,-153.125)"><rect class="markmap-node-rect" y="-0.75" x="-1" width="210.20703125" height="1.5" fill="#1f77b4"></rect><circle class="markmap-node-circle" cx="208.20703125" stroke="#1f77b4" r="4.5" style="display: none;"></circle><text class="markmap-node-text" x="10" dy="-5" text-anchor="start" style="fill-opacity: 1;">Chronicle view, Graph view, Task view...</text></g><g class="markmap-node" transform="translate(220.2333984375,-168.125)"><rect class="markmap-node-rect" y="-0.75" x="-1" width="330.423828125" height="1.5" fill="#9467bd"></rect><circle class="markmap-node-circle" cx="328.423828125" stroke="#9467bd" r="4.5" style="display: none;"></circle><text class="markmap-node-text" x="10" dy="-5" text-anchor="start" style="fill-opacity: 1;">Slash commands, Hovering toolbar, hotkeys and more toolkits...</text></g><g class="markmap-node" transform="translate(220.2333984375,-183.125)"><rect class="markmap-node-rect" y="-0.75" x="-1" width="290.3447265625" height="1.5" fill="#c5b0d5"></rect><circle class="markmap-node-circle" cx="288.3447265625" stroke="#c5b0d5" r="4.5" style="display: none;"></circle><text class="markmap-node-text" x="10" dy="-5" text-anchor="start" style="fill-opacity: 1;">Markdown support: Table, Math, Code block(Highlight)...</text></g><g class="markmap-node" transform="translate(220.2333984375,-198.125)"><rect class="markmap-node-rect" y="-0.75" x="-1" width="268" height="1.5" fill="#8c564b"></rect><circle class="markmap-node-circle" cx="266" stroke="#8c564b" r="4.5" style="display: none;"></circle><text class="markmap-node-text" x="10" dy="-5" text-anchor="start" style="fill-opacity: 1;">WYSIWYG mode, Markdown mode, Mindmap mode;</text></g><g class="markmap-node" transform="translate(106,-160.625)"><rect class="markmap-node-rect" y="-1" x="-1" width="56.2333984375" height="2" fill="#8c564b"></rect><circle class="markmap-node-circle" cx="54.2333984375" stroke="#8c564b" r="4.5"></circle><text class="markmap-node-text" x="10" dy="-5" text-anchor="start" style="fill-opacity: 1;">Features</text></g><g class="markmap-node" transform="translate(0,0)"><rect class="markmap-node-rect" y="-3" x="-1" width="48" height="6" fill="#c49c94"></rect><circle class="markmap-node-circle" cx="46" stroke="#c49c94" r="4.5"></circle><text class="markmap-node-text" x="10" dy="-5" text-anchor="start" style="fill-opacity: 1;">mdSilo</text></g></g><style type="text/css">svg#mindmap {width: 100%; height: 100%;} .markmap-node-circle {fill: #fff; stroke-width: 1.5px;} .markmap-node-text {fill: #000; font: 10px sans-serif;} .markmap-link {fill: none;}</style></svg>